<svg data-v-423bf9ae="" xmlns="http://www.w3.org/2000/svg" viewBox="0 0 401.3065488464717 60" class="font"><!----><!----><defs data-v-423bf9ae=""><linearGradient data-v-423bf9ae="" gradientTransform="rotate(25)" id="01488d15-1176-48dd-bcb9-c40709f2da77" x1="0%" y1="0%" x2="100%" y2="0%"><stop data-v-423bf9ae="" offset="0%" style="stop-color: rgb(180, 55, 61); stop-opacity: 1;"></stop><stop data-v-423bf9ae="" offset="100%" style="stop-color: rgb(178, 58, 203); stop-opacity: 1;"></stop></linearGradient></defs><g data-v-423bf9ae="" id="788d7410-0f15-4775-b19c-8c3361cc80b6" fill="url(#01488d15-1176-48dd-bcb9-c40709f2da77)" transform="matrix(4.307250444043897,0,0,4.307250444043897,-1.1629503708469713,-16.841349367487325)"><path d="M0.28 4.65L1.34 4.87C1.34 4.87 1.48 5.66 1.48 5.94L1.48 12.63C1.48 12.91 1.37 13.57 1.34 13.69L0.27 13.92L0.34 14.62C0.34 14.62 1.61 14.55 1.89 14.55C3.01 14.55 3.70 14.62 3.70 14.62L3.79 13.79L2.70 13.69C2.69 13.58 2.62 12.82 2.62 12.21L2.62 6.36C2.62 5.70 2.67 4.65 2.72 4.21L2.45 3.96L1.64 3.96C1.36 3.96 0.35 3.91 0.35 3.91ZM8.13 13.79L7.04 13.69C7.04 13.69 6.94 12.91 6.94 12.21L6.94 10.02C6.94 9.32 7.04 7.88 7.04 7.88L6.78 7.63L5.96 7.63C5.68 7.63 4.68 7.57 4.68 7.57L4.61 8.32L5.67 8.54C5.67 8.54 5.81 9.32 5.81 9.60L5.81 12.63C5.81 12.91 5.67 13.69 5.67 13.69L4.61 13.92L4.68 14.62C4.68 14.62 5.95 14.55 6.23 14.55C7.35 14.55 8.04 14.62 8.04 14.62ZM6.38 4.47C5.85 4.47 5.56 4.84 5.56 5.38C5.56 5.91 5.85 6.27 6.38 6.27C6.92 6.27 7.21 5.91 7.21 5.38C7.21 4.80 6.90 4.47 6.38 4.47ZM8.46 4.65L9.52 4.87C9.52 4.87 9.66 5.66 9.66 5.94L9.66 12.63C9.66 12.91 9.55 14.18 9.55 14.18C10.19 14.42 11.14 14.69 12.29 14.69C14.29 14.69 15.51 12.96 15.51 10.96C15.51 9.03 14.60 7.50 12.74 7.50C11.77 7.50 11.14 8.04 10.79 8.57L10.79 6.36C10.79 5.66 10.89 4.21 10.89 4.21L10.63 3.96L9.81 3.96C9.53 3.96 8.53 3.91 8.53 3.91ZM12.53 8.36C13.86 8.36 14.22 9.60 14.22 10.99C14.22 12.53 13.72 13.90 12.21 13.90C11.72 13.90 11.27 13.83 10.89 13.73C10.86 13.55 10.79 12.82 10.79 12.21L10.79 10.71C10.79 9.55 11.35 8.36 12.53 8.36ZM18.70 7.88L18.44 7.63L17.93 7.63C17.65 7.63 16.65 7.57 16.65 7.57L16.58 8.32L17.64 8.54C17.64 8.54 17.78 9.32 17.78 9.60L17.78 12.63C17.78 12.91 17.64 13.69 17.64 13.69L16.58 13.92L16.65 14.62C16.65 14.62 17.92 14.55 18.20 14.55C19.32 14.55 20.29 14.62 20.29 14.62L20.38 13.79L19.01 13.69C19.01 13.69 18.91 12.91 18.91 12.21L18.91 10.57C18.97 9.25 19.50 8.48 20.79 8.47L20.85 8.47C20.94 8.76 21.04 9.09 21.04 9.17L21.04 9.91L21.85 9.95L21.99 7.64C21.99 7.64 21.56 7.50 21.04 7.50C20.03 7.50 19.33 7.91 18.79 8.81ZM27.06 14.55C28.18 14.55 28.87 14.62 28.87 14.62L28.97 13.79L28.00 13.69C28.00 13.69 27.86 12.91 27.86 12.21L27.86 10.47C27.86 8.33 27.22 7.50 25.55 7.50C24.71 7.50 23.86 7.62 23.02 7.84L23.17 9.74L23.98 9.70L23.98 9.13L24.08 8.54C24.43 8.37 24.95 8.26 25.41 8.26C26.29 8.26 26.73 8.89 26.73 10.19L26.73 10.65L24.49 11.03C23.23 11.24 22.61 11.89 22.61 12.89C22.61 13.99 23.39 14.69 24.64 14.69C25.55 14.69 26.50 14.15 26.87 13.44ZM26.73 11.37L26.73 12.21C26.59 13.12 25.80 13.79 24.86 13.79C24.21 13.79 23.84 13.38 23.84 12.68C23.84 12.19 24.16 11.84 24.72 11.75ZM31.84 7.88L31.57 7.63L31.07 7.63C30.79 7.63 29.78 7.57 29.78 7.57L29.71 8.32L30.77 8.54C30.77 8.54 30.91 9.32 30.91 9.60L30.91 12.63C30.91 12.91 30.77 13.69 30.77 13.69L29.71 13.92L29.78 14.62C29.78 14.62 31.05 14.55 31.33 14.55C32.45 14.55 33.42 14.62 33.42 14.62L33.52 13.79L32.14 13.69C32.14 13.69 32.05 12.91 32.05 12.21L32.05 10.57C32.10 9.25 32.63 8.48 33.92 8.47L33.98 8.47C34.08 8.76 34.17 9.09 34.17 9.17L34.17 9.91L34.99 9.95L35.13 7.64C35.13 7.64 34.69 7.50 34.17 7.50C33.17 7.50 32.47 7.91 31.92 8.81ZM39.44 13.09L38.05 9.66C37.94 9.39 37.80 8.89 37.70 8.47L38.71 8.37L38.67 7.56C38.67 7.56 37.87 7.63 36.75 7.63C36.47 7.63 35.60 7.59 35.60 7.59L35.53 8.32L36.22 8.48C36.48 8.95 36.79 9.53 36.93 9.88L38.93 14.55L38.49 15.79C38.40 16.00 38.19 16.41 37.95 16.74C37.66 16.80 37.20 16.88 37.02 16.88L36.46 16.87L36.34 17.68L38.60 17.84L41.48 10.08C41.59 9.80 41.93 9.06 42.21 8.48L42.95 8.37L42.91 7.56C42.91 7.56 42.36 7.63 41.30 7.63C41.02 7.63 40.08 7.59 40.08 7.59L40.01 8.32L41.03 8.48C40.94 8.93 40.75 9.58 40.66 9.84ZM48.85 7.88L48.58 7.63L48.08 7.63C47.80 7.63 46.79 7.57 46.79 7.57L46.72 8.32L47.78 8.54C47.78 8.54 47.92 9.32 47.92 9.60L47.92 12.63C47.92 12.91 47.78 13.69 47.78 13.69L46.72 13.92L46.79 14.62C46.79 14.62 48.06 14.55 48.34 14.55C49.46 14.55 50.43 14.62 50.43 14.62L50.53 13.79L49.15 13.69C49.15 13.69 49.06 12.91 49.06 12.21L49.06 10.57C49.11 9.25 49.64 8.48 50.93 8.47L50.99 8.47C51.09 8.76 51.18 9.09 51.18 9.17L51.18 9.91L52.00 9.95L52.14 7.64C52.14 7.64 51.70 7.50 51.18 7.50C50.18 7.50 49.48 7.91 48.93 8.81ZM55.73 7.50C53.68 7.50 52.68 9.02 52.68 11.12C52.68 13.23 53.79 14.69 55.90 14.69C57.48 14.69 58.38 13.85 58.38 13.85L57.99 13.20C57.99 13.20 57.09 13.78 55.90 13.78C54.64 13.78 54.04 12.49 54.00 11.23L58.18 11.23L58.42 10.77C58.42 8.81 57.69 7.50 55.73 7.50ZM55.68 8.23C56.67 8.23 57.13 9.02 57.13 10.01C57.13 10.08 57.12 10.29 57.12 10.29L54.01 10.53C54.11 9.37 54.53 8.23 55.68 8.23ZM65.45 8.39L65.45 7.57L63.74 7.84C63.32 7.63 62.83 7.50 62.27 7.50C60.65 7.50 59.57 8.51 59.57 10.04C59.57 11.05 60.05 11.83 60.83 12.25C60.14 12.82 59.82 13.17 59.82 13.37C59.82 13.86 60.03 14.18 60.54 14.39C59.79 14.98 59.26 15.55 59.26 15.81C59.26 17.14 60.21 17.84 62.03 17.84C63.99 17.84 65.59 16.63 65.59 15.16C65.59 14.49 65.37 14.07 64.96 13.94C64.43 13.78 63.21 13.65 62.26 13.52C61.21 13.40 60.94 13.31 60.94 13.03C60.94 12.95 61.05 12.75 61.32 12.45C61.61 12.53 61.92 12.57 62.27 12.57C63.90 12.57 64.97 11.56 64.97 10.04C64.97 9.34 64.75 8.74 64.33 8.30ZM61.07 14.56C61.33 14.63 61.66 14.69 62.03 14.73L63.85 14.97C64.27 15.02 64.40 15.18 64.40 15.60C64.40 16.45 63.57 17.04 62.43 17.04C61.08 17.04 60.47 16.60 60.47 15.65C60.47 15.39 60.58 15.16 61.07 14.56ZM62.27 8.22C63.27 8.22 63.76 8.82 63.76 10.04C63.76 11.26 63.27 11.86 62.27 11.86C61.28 11.86 60.79 11.26 60.79 10.04C60.79 8.83 61.29 8.22 62.27 8.22ZM69.92 13.79L68.82 13.69C68.82 13.69 68.73 12.91 68.73 12.21L68.73 10.02C68.73 9.32 68.82 7.88 68.82 7.88L68.56 7.63L67.75 7.63C67.47 7.63 66.46 7.57 66.46 7.57L66.39 8.32L67.45 8.54C67.45 8.54 67.59 9.32 67.59 9.60L67.59 12.63C67.59 12.91 67.45 13.69 67.45 13.69L66.39 13.92L66.46 14.62C66.46 14.62 67.73 14.55 68.01 14.55C69.13 14.55 69.82 14.62 69.82 14.62ZM68.17 4.47C67.63 4.47 67.34 4.84 67.34 5.38C67.34 5.91 67.63 6.27 68.17 6.27C68.70 6.27 68.99 5.91 68.99 5.38C68.99 4.80 68.68 4.47 68.17 4.47ZM73.04 7.50C71.74 7.50 70.77 8.19 70.77 9.37C70.77 11.63 74.31 11.44 74.31 12.91C74.31 13.65 73.82 13.97 73.04 13.97C72.59 13.97 72.18 13.89 71.86 13.64C71.75 13.31 71.65 12.95 71.65 12.81L71.65 12.28L70.84 12.24L70.69 14.14C70.69 14.14 71.61 14.69 73.00 14.69C74.52 14.69 75.46 14.11 75.46 12.64C75.46 10.43 71.89 10.57 71.89 9.14C71.89 8.57 72.34 8.23 73.02 8.23C73.42 8.23 73.67 8.27 73.96 8.40C74.06 8.72 74.16 9.06 74.16 9.20L74.16 9.70L74.97 9.74L75.14 7.74C74.47 7.60 73.71 7.50 73.04 7.50ZM80.40 13.38C80.40 13.38 79.80 13.79 79.30 13.79C78.78 13.79 78.54 13.40 78.54 12.70L78.54 8.39L80.43 8.39L80.50 7.63L78.54 7.63L78.54 6.19L78.05 6.13C78.05 6.13 77.52 7.25 77.41 7.39C77.08 7.59 76.75 7.64 76.29 7.80L76.33 8.39L77.41 8.39L77.41 12.36C77.41 13.90 77.81 14.69 79.14 14.69C79.84 14.69 80.35 14.31 80.79 13.96ZM84.43 7.50C82.38 7.50 81.38 9.02 81.38 11.12C81.38 13.23 82.49 14.69 84.60 14.69C86.18 14.69 87.08 13.85 87.08 13.85L86.69 13.20C86.69 13.20 85.79 13.78 84.60 13.78C83.34 13.78 82.74 12.49 82.70 11.23L86.88 11.23L87.12 10.77C87.12 8.81 86.39 7.50 84.43 7.50ZM84.38 8.23C85.37 8.23 85.83 9.02 85.83 10.01C85.83 10.08 85.82 10.29 85.82 10.29L82.71 10.53C82.81 9.37 83.23 8.23 84.38 8.23ZM90.15 7.88L89.88 7.63L89.38 7.63C89.10 7.63 88.09 7.57 88.09 7.57L88.02 8.32L89.08 8.54C89.08 8.54 89.22 9.32 89.22 9.60L89.22 12.63C89.22 12.91 89.08 13.69 89.08 13.69L88.02 13.92L88.09 14.62C88.09 14.62 89.36 14.55 89.64 14.55C90.76 14.55 91.73 14.62 91.73 14.62L91.83 13.79L90.45 13.69C90.45 13.69 90.36 12.91 90.36 12.21L90.36 10.57C90.41 9.25 90.94 8.48 92.23 8.47L92.29 8.47C92.39 8.76 92.48 9.09 92.48 9.17L92.48 9.91L93.30 9.95L93.44 7.64C93.44 7.64 93.00 7.50 92.48 7.50C91.48 7.50 90.78 7.91 90.23 8.81Z"></path></g><!----><!----></svg>